# xmcd
#
# Track frame offsets: 
#        150
#        23364
#        49173
#        67883
#        81699
#        97261
#        117452
#        131828
#        146434
#        168391
#        189710
#
# Disc length: 2798 seconds
#
# Revision: 0
# Processed by: cddbd v1.5.2PL0 Copyright (c) Steve Scherf et al.
# Submitted via: ExactAudioCopy v1.0b1
#
DISCID=9f0aec0b
DTITLE=SharBaby - 11 O'Clock Blues
DYEAR=2011
DGENRE=Blues
TTITLE0=01 Slippin
TTITLE1=02 Cause I Love Ya
TTITLE2=03 The Stalker
TTITLE3=04 Pick In My Pocket
TTITLE4=05 Busted
TTITLE5=06 Remember When
TTITLE6=07 I'm Ready
TTITLE7=08 Alabama Bound
TTITLE8=09 Red Eyed Snake
TTITLE9=10 Beer 'N' Atmosphere
TTITLE10=11 Keep Your Mind To Yourself
EXTD=Bill Roberts Mastering
EXTT0=
EXTT1=
EXTT2=
EXTT3=
EXTT4=
EXTT5=
EXTT6=
EXTT7=
EXTT8=
EXTT9=
EXTT10=
PLAYORDER=
